<svg xmlns="http://www.w3.org/2000/svg" viewBox="0 0 100 100" width="64" height="64">
  <defs>
    <clipPath id="tile"><rect x="0" y="0" width="100" height="100" rx="22"/></clipPath>
    <clipPath id="head"><path d="M32,20 C34,13 46,10 55,14 C64,18 68,26 68,34 L70,42 L78,50 L69,55 L71,61 C71,66 66,67 64,68 L63,76 L66,86 L34,86 L33,58 C27,54 27,30 32,20 Z"/></clipPath>
    <radialGradient id="bg" cx="50%" cy="36%" r="78%">
      <stop offset="0%" stop-color="#241636"/><stop offset="58%" stop-color="#0c0714"/><stop offset="100%" stop-color="#050207"/>
    </radialGradient>
    <linearGradient id="gV" x1="0" y1="0" x2="0.4" y2="1"><stop offset="0%" stop-color="#8B3DF5"/><stop offset="100%" stop-color="#4F46E5"/></linearGradient>
    <linearGradient id="gM" x1="0" y1="0" x2="0.3" y2="1"><stop offset="0%" stop-color="#F0369A"/><stop offset="100%" stop-color="#E11D74"/></linearGradient>
    <linearGradient id="gB" x1="0" y1="0" x2="0.4" y2="1"><stop offset="0%" stop-color="#3B7BF6"/><stop offset="100%" stop-color="#2563EB"/></linearGradient>
    <linearGradient id="gF" x1="0.1" y1="0" x2="1" y2="1"><stop offset="0%" stop-color="#F5327D"/><stop offset="100%" stop-color="#A93AE0"/></linearGradient>
    <filter id="blur" x="-40%" y="-40%" width="180%" height="180%"><feGaussianBlur stdDeviation="5"/></filter>
    <filter id="glow" x="-50%" y="-50%" width="200%" height="200%"><feGaussianBlur stdDeviation="1.6"/></filter>
  </defs>
  <g clip-path="url(#tile)">
    <rect x="0" y="0" width="100" height="100" fill="url(#bg)"/>
    <g filter="url(#blur)" opacity="0.5">
      <circle cx="30" cy="30" r="24" fill="#7C3AED"/>
      <circle cx="68" cy="28" r="20" fill="#F5A623"/>
      <circle cx="30" cy="68" r="24" fill="#2563EB"/>
      <circle cx="70" cy="70" r="24" fill="#F0369A"/>
    </g>
    <g opacity="0.9">
      <circle cx="55" cy="11" r="3" fill="#F43F7A"/>
      <circle cx="90" cy="45" r="3" fill="#2B7BFF"/>
      <circle cx="10" cy="49" r="2.4" fill="#8B5CF6"/>
      <circle cx="15" cy="77" r="2.4" fill="#F5A623"/>
      <circle cx="88" cy="63" r="2.4" fill="#F43F7A"/>
    </g>
    <g clip-path="url(#head)">
      <path d="M6,2 L48,2 L48,30 C59,30 59,42 48,42 L48,52 L6,52 Z" fill="url(#gV)"/>
      <path d="M48,2 L94,2 L94,52 L74,52 C74,63 60,63 60,52 L48,52 L48,42 C59,42 59,30 48,30 L48,2 Z" fill="url(#gM)"/>
      <path d="M48,52 L60,52 C60,63 74,63 74,52 L94,52 L94,98 L48,98 L48,52 Z" fill="url(#gF)"/>
      <path d="M6,52 L48,52 L48,98 L6,98 L6,52 Z" fill="url(#gB)"/>
      <g fill="none" stroke-linejoin="round" stroke-linecap="round">
        <path d="M48,2 L48,30 C59,30 59,42 48,42 L48,98" stroke="#fff" stroke-width="3.3" opacity="0.9"/>
        <path d="M6,52 L60,52 C60,63 74,63 74,52 L94,52" stroke="#fff" stroke-width="3.3" opacity="0.9"/>
        <path d="M48,2 L48,30 C59,30 59,42 48,42 L48,98" stroke="#161038" stroke-width="2.1"/>
        <path d="M6,52 L60,52 C60,63 74,63 74,52 L94,52" stroke="#161038" stroke-width="2.1"/>
      </g>
    </g>
    <path d="M32,20 C34,13 46,10 55,14 C64,18 68,26 68,34 L70,42 L78,50 L69,55 L71,61 C71,66 66,67 64,68 L63,76 L66,86 L34,86 L33,58 C27,54 27,30 32,20 Z" fill="none" stroke="#fff" stroke-width="4.4" opacity="0.95" stroke-linejoin="round"/>
    <path d="M32,20 C34,13 46,10 55,14 C64,18 68,26 68,34 L70,42 L78,50 L69,55 L71,61 C71,66 66,67 64,68 L63,76 L66,86 L34,86 L33,58 C27,54 27,30 32,20 Z" fill="none" stroke="#161038" stroke-width="2.8" stroke-linejoin="round"/>
  </g>
</svg>
